<?xml version="1.0" encoding="UTF-8"?>
<svg width="475px" height="475px" viewBox="0 0 475 475" version="1.1" xmlns="http://www.w3.org/2000/svg" xmlns:xlink="http://www.w3.org/1999/xlink">
    <title>crypto-dark</title>
    <g id="crypto-dark" stroke="none" stroke-width="1" fill="none" fill-rule="evenodd">
        <g id="crypto" transform="translate(57, 10.9991)" fill="#000000">
            <path d="M163.626939,1.03558655e-14 C165.672592,0.00518359012 167.967558,0.0385787548 169.936498,0.110506802 C204.150718,1.45316368 232.016595,12.8657471 255.204748,35.0195856 C275.252142,54.2195789 292.693375,83.8251631 304.654987,119.137039 C308.063044,129.206965 309.265887,131.959412 311.070153,133.839132 C313.141717,135.92025 313.542665,136.054516 316.883897,135.785984 C321.494798,135.383187 325.637926,132.966405 334.726078,125.044729 C344.749775,116.451725 348.55878,114.974803 353.102856,117.727249 C355.709017,119.338437 357.646932,122.426548 359.050249,127.461512 C360.720865,133.234936 360.119443,145.385981 357.780581,153.911852 C354.038401,167.539819 345.55167,186.269883 331.652144,211.780363 C323.432712,226.750988 321.361148,231.316021 318.955461,239.707626 C316.082001,249.71042 314.611859,260.250277 313.542665,278.913207 C311.003328,324.899205 305.724181,356.585908 297.838873,373.503384 C292.960673,383.976108 288.617071,387.668414 280.865412,387.668414 C275.252142,387.668414 272.178208,386.057226 267.433658,380.552333 C259.481525,371.355133 258.011383,370.415273 253.400482,371.690797 C249.992425,372.630657 247.118966,376.725761 239.033183,392.434846 C228.007117,413.715958 222.327022,423.248821 215.243609,432.17749 C203.816594,446.543918 182.90048,455.673985 172.943607,450.571889 C168.600005,448.423638 166.528441,444.93273 163.454508,434.661405 C161.984365,429.693574 160.113275,424.255814 159.244555,422.577493 C156.170621,416.468404 150.490526,413.246028 144.275834,414.118755 C140.533654,414.655817 135.989578,417.139733 120.820383,427.075394 C98.7682494,441.576088 87.3412348,446.34252 70.835547,448.020841 C53.060191,449.833428 37.2227497,444.93273 31.9436025,435.869796 C30.0056878,432.513154 29.8720385,431.976091 30.1393371,426.806862 C30.339811,421.839032 30.6739343,420.630641 33.4805694,414.991482 C35.1511856,411.500574 39.9625602,403.914562 44.0388636,398.006872 C58.9374187,376.747243 65.4246752,366.49497 71.0542006,355.310964 L71.4242154,354.57208 C71.8546363,353.708178 72.2809642,352.83721 72.7066372,351.953741 C79.8568744,336.983117 83.1981067,324.29501 83.8663532,309.458651 C84.5345997,294.689426 82.4630356,287.371946 75.8473956,281.128591 C71.3033196,276.764956 66.6255943,274.079642 50.8549776,266.762163 C28.5355456,256.423705 15.9725119,248.837693 8.15402825,240.98315 C0.0682459793,232.927209 -2.27061666,223.931408 2.34028397,218.426515 C5.21374379,215.00274 6.88435996,214.53281 17.6431281,214.130013 C36.019906,213.391552 46.1772523,211.780363 52.1914706,208.557987 C54.2630346,207.416729 55.5327029,206.27547 55.8000015,205.201345 C56.0673001,204.127219 54.7976318,199.226522 52.0578213,190.70065 C47.0459727,175.125831 44.4398115,164.787373 42.5018968,152.367797 C40.4971574,139.948221 40.3635081,113.296482 42.1677735,102.689492 C47.5805699,71.3384541 61.6805704,45.4251764 82.5298602,28.3734341 C102.844553,11.7244888 130.242658,1.65456221 159.244555,0.0433739579 C160.032131,0.0193979423 161.152126,0.00398478934 162.434068,0.000192664412 Z M218.766782,139.317752 C206.447434,135.292246 157.717568,143.982228 133.557957,154.589117 C126.440111,157.720066 123.086511,160.084252 121.786135,163.087408 C120.48576,165.962769 120.5542,167.368502 122.538984,171.202317 C127.740487,181.489722 143.344995,191.329848 159.154825,194.333003 C169.626271,196.313808 184.751693,194.524694 195.017816,190.179703 C212.333345,182.895454 226.91124,164.620934 226.91124,150.37192 C226.91124,144.5573 224.447371,141.23466 218.766782,139.317752 Z M115.332862,98.5284883 C106.497111,99.7188244 100.907946,109.134677 102.849112,119.559384 C104.790279,129.984091 113.526696,137.470027 122.362447,136.279691 C131.198198,135.089355 136.787363,125.673502 134.846197,115.248796 C132.90503,104.824089 124.168613,97.3381522 115.332862,98.5284883 Z M202.332862,81.5284883 C193.497111,82.7188244 187.907946,92.134677 189.849112,102.559384 C191.790279,112.984091 200.526696,120.470027 209.362447,119.279691 C218.198198,118.089355 223.787363,108.673502 221.846197,98.2487955 C219.90503,87.8240888 211.168613,80.3381522 202.332862,81.5284883 Z"></path>
        </g>
    </g>
</svg>