<?xml version="1.0" standalone="no"?>
<!DOCTYPE svg PUBLIC "-//W3C//DTD SVG 20010904//EN"
 "http://www.w3.org/TR/2001/REC-SVG-20010904/DTD/svg10.dtd">
<svg version="1.0" xmlns="http://www.w3.org/2000/svg"
 width="1024.000000pt" height="1024.000000pt" viewBox="0 0 1024.000000 1024.000000"
 preserveAspectRatio="xMidYMid meet">

<g transform="translate(0.000000,1024.000000) scale(0.100000,-0.100000)"
fill="#000000" stroke="none">
<path d="M4785 8594 c-434 -24 -844 -174 -1148 -422 -312 -254 -523 -640 -604
-1107 -27 -158 -25 -555 5 -740 29 -185 68 -339 143 -571 41 -127 60 -200 56
-216 -4 -16 -23 -33 -54 -50 -90 -48 -242 -72 -517 -83 -161 -6 -186 -13 -229
-64 -69 -82 -34 -216 87 -336 117 -117 305 -230 639 -384 236 -109 306 -149
374 -214 99 -93 130 -202 120 -422 -10 -221 -60 -410 -167 -633 -91 -188 -184
-338 -429 -686 -61 -88 -133 -201 -158 -253 -42 -84 -47 -102 -50 -176 -4 -77
-2 -85 27 -135 79 -135 316 -208 582 -181 247 25 418 96 748 312 227 148 295
185 351 193 93 13 178 -35 224 -126 13 -25 41 -106 63 -180 46 -153 77 -205
142 -237 149 -76 462 60 633 274 106 133 191 275 356 592 121 234 164 295 215
309 69 19 91 5 210 -132 71 -82 117 -106 201 -106 116 0 181 55 254 211 118
252 197 724 235 1409 16 278 38 435 81 584 36 125 67 193 190 416 208 380 335
659 391 862 35 127 44 308 19 394 -21 75 -50 121 -89 145 -68 41 -125 19 -275
-109 -136 -118 -198 -154 -267 -160 -50 -4 -56 -2 -87 29 -27 28 -45 69 -96
219 -179 526 -440 967 -740 1253 -347 330 -764 500 -1276 520 -55 2 -127 2
-160 1z m761 -1224 c177 -101 225 -368 90 -502 -133 -134 -349 -22 -395 204
-47 224 132 398 305 298z m-1410 -241 c64 -16 136 -84 176 -167 30 -61 33 -74
33 -162 0 -84 -3 -101 -27 -145 -81 -153 -221 -168 -340 -36 -148 164 -116
447 57 509 40 14 48 14 101 1z m1505 -624 c83 -30 119 -82 119 -173 0 -223
-213 -509 -466 -623 -150 -68 -371 -96 -524 -65 -231 47 -459 201 -535 362
-29 60 -30 82 -11 127 19 47 68 84 172 133 353 166 1065 302 1245 239z"/>
</g>
</svg>
