<?xml version="1.0" encoding="UTF-8"?>
<svg width="131px" height="38px" viewBox="0 0 131 38" version="1.1" xmlns="http://www.w3.org/2000/svg" xmlns:xlink="http://www.w3.org/1999/xlink">
    <title>light</title>
    <g id="Page-1" stroke="none" stroke-width="1" fill="none" fill-rule="evenodd">
        <g id="Docs" transform="translate(-16, -66)" fill="#FFFFFF">
            <g id="light" transform="translate(15, 66)">
                <g id="Ghostable" transform="translate(39.8374, 11.2409)" fill-rule="nonzero">
                    <path d="M6.87042236,14.9673462 C5.50669352,14.9673462 4.30931091,14.6618652 3.27827454,14.0509033 C2.24723816,13.4399414 1.44309998,12.5752004 0.865859985,11.4566803 C0.288619995,10.3381602 0,9.01941935 0,7.50045776 C0,5.9332784 0.299224854,4.59014893 0.897674561,3.47106934 C1.49612427,2.35198975 2.30969747,1.49370829 3.33839417,0.896224976 C4.36709086,0.298741659 5.52541097,0 6.81335449,0 C7.6365153,0 8.40563456,0.119603475 9.12071228,0.358810425 C9.83579,0.598017375 10.472463,0.938949585 11.0307312,1.38160706 C11.5889994,1.82426453 12.0450846,2.34840393 12.3989868,2.95402527 C12.752889,3.55964661 12.9791768,4.22892253 13.0778503,4.96185303 L10.0387573,4.96185303 C9.94537354,4.60489909 9.80588277,4.28408305 9.62028503,3.99940491 C9.4346873,3.71472677 9.20689901,3.47150167 8.93692017,3.26972961 C8.66694132,3.06795756 8.35952759,2.91404724 8.01467896,2.80799866 C7.66983032,2.70195007 7.28973389,2.64892578 6.87438965,2.64892578 C6.10432943,2.64892578 5.42981466,2.83915202 4.85084534,3.21960449 C4.27187602,3.60005697 3.82270813,4.15031433 3.50334167,4.87037659 C3.18397522,5.59043884 3.02429199,6.46011353 3.02429199,7.47940063 C3.02429199,8.49716187 3.18300883,9.36650594 3.5004425,10.0874329 C3.81787618,10.8083598 4.26719666,11.3604228 4.84840393,11.7436218 C5.42961121,12.1268209 6.11709595,12.3184204 6.91085815,12.3184204 C7.60482788,12.3184204 8.20549011,12.1901957 8.71284485,11.9337463 C9.22019958,11.677297 9.61133321,11.3155619 9.88624573,10.8485413 C10.1611582,10.3815206 10.2986145,9.83352661 10.2986145,9.20455933 L10.9535217,9.28421021 L7.13485718,9.28421021 L7.13485718,7.01293945 L13.2069397,7.01293945 L13.2069397,8.84429932 C13.2069397,10.0927734 12.9352315,11.1751302 12.3918152,12.0913696 C11.8483988,13.007609 11.1004893,13.7159983 10.1480865,14.2165375 C9.1956838,14.7170766 8.10312907,14.9673462 6.87042236,14.9673462 Z" id="Path"></path>
                    <path d="M17.4634224,8.63494873 L17.4634224,14.7590637 L14.5534187,14.7590637 L14.5534187,0.208282471 L17.4283271,0.208282471 L17.4283271,6.75476074 L17.0906501,6.75476074 C17.3908414,5.84320068 17.8361183,5.13613383 18.4264808,4.63356018 C19.0168434,4.13098653 19.7754341,3.87969971 20.7022529,3.87969971 C21.4518664,3.87969971 22.1047645,4.04218038 22.6609474,4.36714172 C23.2171302,4.69210307 23.6485471,5.16016642 23.9551979,5.77133179 C24.2618487,6.38249715 24.4151741,7.11761475 24.4151741,7.97668457 L24.4151741,14.7590637 L21.5021186,14.7590637 L21.5021186,8.49304199 C21.5021186,7.81046549 21.330559,7.2807312 20.9874397,6.90383911 C20.6443204,6.52694702 20.1659065,6.33850098 19.552198,6.33850098 C19.1457038,6.33850098 18.7850115,6.42583211 18.470121,6.60049438 C18.1552304,6.77515666 17.9087247,7.03259786 17.7306037,7.37281799 C17.5524828,7.71303813 17.4634224,8.13374837 17.4634224,8.63494873 Z" id="Path"></path>
                    <path d="M30.8966687,14.9794006 C29.8205172,14.9794006 28.8844668,14.7478231 28.0885175,14.284668 C27.2925682,13.8215129 26.6772575,13.1738536 26.2425855,12.3416901 C25.8079134,11.5095266 25.5905774,10.5407715 25.5905774,9.4354248 C25.5905774,8.32316081 25.8079134,7.35026042 26.2425855,6.51672363 C26.6772575,5.68318685 27.2925682,5.03428141 28.0885175,4.57000732 C28.8844668,4.10573324 29.8205172,3.87359619 30.8966687,3.87359619 C31.976991,3.87359619 32.9139061,4.10573324 33.7074139,4.57000732 C34.5009218,5.03428141 35.1150372,5.68318685 35.5497601,6.51672363 C35.984483,7.35026042 36.2018445,8.32316081 36.2018445,9.4354248 C36.2018445,10.5407715 35.984483,11.5095266 35.5497601,12.3416901 C35.1150372,13.1738536 34.5009218,13.8215129 33.7074139,14.284668 C32.9139061,14.7478231 31.976991,14.9794006 30.8966687,14.9794006 Z M30.8966687,12.6635742 C31.4003105,12.6635742 31.827226,12.5267029 32.1774152,12.2529602 C32.5276044,11.9792175 32.7935142,11.5987651 32.9751447,11.1116028 C33.1567751,10.6244405 33.2475903,10.0633748 33.2475903,9.42840576 C33.2475903,8.78601074 33.1567751,8.22227478 32.9751447,7.73719788 C32.7935142,7.25212097 32.5276044,6.8728892 32.1774152,6.59950256 C31.827226,6.32611593 31.4003105,6.18942261 30.8966687,6.18942261 C30.3949597,6.18942261 29.968858,6.32586161 29.6183637,6.59873962 C29.2678693,6.87161764 29.0018068,7.25036621 28.8201764,7.73498535 C28.6385459,8.21960449 28.5477307,8.78407796 28.5477307,9.42840576 C28.5477307,10.0642904 28.6385459,10.6255849 28.8201764,11.1122894 C29.0018068,11.5989939 29.267615,11.9792175 29.6176007,12.2529602 C29.9675865,12.5267029 30.3939425,12.6635742 30.8966687,12.6635742 Z" id="Shape"></path>
                    <path d="M41.6960237,14.9845886 C40.8133536,14.9845886 40.0302217,14.8550415 39.346628,14.5959473 C38.6630342,14.336853 38.1086061,13.9613597 37.6833437,13.4694672 C37.2580812,12.9775747 36.9932649,12.3844401 36.8888948,11.6900635 L39.6530245,11.3775635 C39.7649222,11.8648275 39.9940075,12.2352346 40.3402803,12.4887848 C40.6865531,12.742335 41.1520479,12.8691101 41.7367647,12.8691101 C42.287607,12.8691101 42.7218213,12.7642822 43.0394075,12.5546265 C43.3569938,12.3449707 43.5157869,12.0783488 43.5157869,11.7547607 C43.5157869,11.4735921 43.4000744,11.2443797 43.1686495,11.0671234 C42.9372245,10.8898671 42.5906974,10.7543437 42.1290682,10.660553 L40.2732942,10.2861023 C39.2383414,10.0761414 38.460779,9.71481323 37.9406069,9.20211792 C37.4204347,8.68942261 37.1603487,8.02815755 37.1603487,7.21832275 C37.1603487,6.53493245 37.3465568,5.94365438 37.7189729,5.44448853 C38.0913891,4.94532267 38.6153759,4.55960592 39.2909334,4.28733826 C39.9664909,4.0150706 40.759541,3.87893677 41.6700838,3.87893677 C42.5439038,3.87893677 43.3020113,4.00586446 43.9444063,4.25971985 C44.5868013,4.51357524 45.1001324,4.87182617 45.4843996,5.33447266 C45.8686668,5.79711914 46.1089164,6.346639 46.2051485,6.98303223 L43.5841463,7.28820801 C43.5056144,6.90175374 43.3077842,6.58409119 42.9906557,6.33522034 C42.6735272,6.08634949 42.2531221,5.96191406 41.7294405,5.96191406 C41.243092,5.96191406 40.8442273,6.06440226 40.5328462,6.26937866 C40.2214652,6.47435506 40.0657747,6.73868815 40.0657747,7.06237793 C40.0657747,7.33398438 40.1727897,7.56146749 40.3868196,7.74482727 C40.6008496,7.92818705 40.9449861,8.06940715 41.4192293,8.16848755 L43.378763,8.55560303 C44.4305005,8.76647949 45.2102754,9.1104126 45.7180879,9.58740234 C46.2259004,10.0643921 46.4798067,10.6896464 46.4798067,11.4631653 C46.4798067,12.1691386 46.2760764,12.7860769 45.8686159,13.3139801 C45.4611554,13.8418833 44.8979789,14.2522939 44.1790865,14.5452118 C43.4601941,14.8381297 42.6325065,14.9845886 41.6960237,14.9845886 Z" id="Path"></path>
                    <path d="M53.2549281,4.04296875 L53.2549281,6.28356934 L46.6808315,6.28356934 L46.6808315,4.04296875 L53.2549281,4.04296875 Z M48.2775112,1.37359619 L51.1875148,1.37359619 L51.1875148,11.5666199 C51.1875148,11.9144185 51.2626389,12.1657308 51.4128871,12.3205566 C51.5631353,12.4753825 51.8206528,12.5527954 52.1854396,12.5527954 C52.3161566,12.5527954 52.4859615,12.5435384 52.6948543,12.5250244 C52.9037471,12.5065104 53.0633795,12.4885559 53.1737514,12.4711609 L53.4532924,14.6884155 C53.1781256,14.7529093 52.8815201,14.7977448 52.5634761,14.8229218 C52.2454321,14.8480988 51.9353481,14.8606873 51.633224,14.8606873 C50.5236049,14.8606873 49.6869146,14.6096039 49.1231532,14.1074371 C48.5593918,13.6052704 48.2775112,12.8656514 48.2775112,11.8885803 L48.2775112,1.37359619 Z" id="Shape"></path>
                    <path d="M57.5046036,14.9575806 C56.813177,14.9575806 56.1955521,14.8381551 55.6517288,14.5993042 C55.1079056,14.3604533 54.6800237,14.0036774 54.3680832,13.5289764 C54.0561427,13.0542755 53.9001724,12.4630737 53.9001724,11.7553711 C53.9001724,11.1529541 54.0103154,10.6511943 54.2306015,10.2500916 C54.4508875,9.84898885 54.7522486,9.52601115 55.1346847,9.28115845 C55.5171209,9.03630575 55.9535477,8.85002136 56.4439651,8.7223053 C56.9343826,8.59458923 57.4486547,8.50524902 57.9867813,8.45428467 C58.6165624,8.39090983 59.1226201,8.3308665 59.5049545,8.27415466 C59.8872889,8.21744283 60.1656601,8.13072205 60.340068,8.01399231 C60.514476,7.89726257 60.60168,7.72354126 60.60168,7.49282837 L60.60168,7.43881226 C60.60168,7.14614868 60.5350499,6.89580282 60.4017898,6.68777466 C60.2685298,6.4797465 60.0754298,6.31917318 59.8224899,6.20605469 C59.5695501,6.0929362 59.2608902,6.03637695 58.8965103,6.03637695 C58.5291804,6.03637695 58.207398,6.09291077 57.931163,6.20597839 C57.6549281,6.31904602 57.4312342,6.47234599 57.2600815,6.6658783 C57.0889287,6.8594106 56.9728348,7.0795695 56.9117996,7.32635498 L54.2187759,7.02911377 C54.3576309,6.36769613 54.6351883,5.80273946 55.051448,5.33424377 C55.4677078,4.86574809 56.0047663,4.50620015 56.6626236,4.25559998 C57.3204808,4.0049998 58.0765538,3.87969971 58.9308426,3.87969971 C59.5563512,3.87969971 60.1455439,3.95281474 60.6984207,4.0990448 C61.2512975,4.24527486 61.7377986,4.46800232 62.1579239,4.76722717 C62.5780492,5.06645203 62.9070287,5.44502258 63.1448624,5.90293884 C63.382696,6.3608551 63.5016128,6.90246582 63.5016128,7.527771 L63.5016128,14.7590637 L60.7126114,14.7590637 L60.7126114,13.2635498 L60.6355545,13.2635498 C60.4579422,13.6008708 60.2267207,13.8966878 59.9418899,14.151001 C59.6570592,14.4053141 59.313711,14.6033223 58.9118454,14.7450256 C58.5099797,14.8867289 58.0408991,14.9575806 57.5046036,14.9575806 Z M58.3189651,12.9231262 C58.7806961,12.9231262 59.1840622,12.8335571 59.5290634,12.6544189 C59.8740646,12.4752808 60.1425939,12.2329966 60.3346512,11.9275665 C60.5267085,11.6221364 60.6227371,11.2798055 60.6227371,10.9005737 L60.6227371,9.76760864 C60.535762,9.82243856 60.411352,9.87429301 60.2495071,9.923172 C60.0876622,9.97205098 59.9049382,10.0167338 59.7013351,10.0572205 C59.497732,10.0977071 59.2906194,10.1342519 59.0799972,10.1668549 C58.8693751,10.1994578 58.671138,10.2293396 58.4852859,10.2565002 C58.1363683,10.3051249 57.8264623,10.3861745 57.5555679,10.499649 C57.2846736,10.6131236 57.0725255,10.7648468 56.9191238,10.9548187 C56.7657221,11.1447906 56.6890213,11.3834635 56.6890213,11.6708374 C56.6890213,11.939799 56.7585505,12.1675618 56.8976089,12.354126 C57.0366674,12.5406901 57.2282669,12.6821645 57.4724075,12.7785492 C57.7165481,12.8749339 57.998734,12.9231262 58.3189651,12.9231262 Z" id="Shape"></path>
                    <path d="M71.1771439,14.95224 C70.632812,14.95224 70.1587469,14.8633067 69.7549485,14.6854401 C69.3511501,14.5075734 69.0130662,14.2754873 68.7406968,13.9891815 C68.4683274,13.7028758 68.2532039,13.3952332 68.0953263,13.0662537 L67.9955338,13.0662537 L67.9955338,14.7590637 L65.1305436,14.7590637 L65.1305436,0.208282471 L68.0405472,0.208282471 L68.0405472,5.74417114 L68.1082963,5.74417114 C68.271667,5.42617798 68.4865616,5.12524923 68.7529801,4.84138489 C69.0193986,4.55752055 69.3531083,4.3262736 69.7541092,4.14764404 C70.1551102,3.96901449 70.6355078,3.87969971 71.1953019,3.87969971 C72.0285335,3.87969971 72.7789607,4.09416199 73.4465836,4.52308655 C74.1142065,4.95201111 74.6446783,5.57828267 75.037999,6.40190125 C75.4313197,7.22551982 75.6279801,8.22820028 75.6279801,9.40994263 C75.6279801,10.5763245 75.4362025,11.572698 75.0526475,12.3990631 C74.6690924,13.2254283 74.1426387,13.857549 73.4732865,14.2954254 C72.8039343,14.7333018 72.0385534,14.95224 71.1771439,14.95224 Z M70.3279923,12.6063538 C70.8251237,12.6063538 71.2463934,12.4732717 71.5918015,12.2071075 C71.9372096,11.9409434 72.2010595,11.5672302 72.3833512,11.085968 C72.5656429,10.6047058 72.6567887,10.044047 72.6567887,9.4039917 C72.6567887,8.76251221 72.5661515,8.20373535 72.3848771,7.72766113 C72.2036027,7.25158691 71.9402614,6.88138326 71.5948533,6.61705017 C71.2494451,6.35271708 70.8271582,6.22055054 70.3279923,6.22055054 C69.8322851,6.22055054 69.4068446,6.35172526 69.0516709,6.61407471 C68.6964971,6.87642415 68.4247381,7.24512736 68.2363938,7.72018433 C68.0480495,8.19524129 67.9538773,8.75651042 67.9538773,9.4039917 C67.9538773,10.0457764 68.0485327,10.6067149 68.2378434,11.0868073 C68.4271541,11.5668996 68.6999049,11.9401805 69.0560959,12.2066498 C69.4122869,12.4731191 69.8362524,12.6063538 70.3279923,12.6063538 Z" id="Shape"></path>
                    <polygon id="Path" points="79.7133657 0.208282471 79.7133657 14.7590637 76.8033621 14.7590637 76.8033621 0.208282471"></polygon>
                    <path d="M86.2030028,14.9794006 C85.1131183,14.9794006 84.1700489,14.7504934 83.3737944,14.2926788 C82.5775399,13.8348643 81.9643146,13.1906382 81.5341185,12.3600006 C81.1039224,11.529363 80.8888243,10.5565389 80.8888243,9.44152832 C80.8888243,8.34208171 81.1042275,7.37447103 81.535034,6.53869629 C81.9658405,5.70292155 82.5702157,5.04979451 83.3481596,4.57931519 C84.1261035,4.10883586 85.0343321,3.87359619 86.0728453,3.87359619 C86.8009947,3.87359619 87.4748991,3.99246216 88.0945585,4.23019409 C88.714218,4.46792603 89.2547606,4.81887817 89.7161864,5.28305054 C90.1776121,5.7472229 90.5364226,6.31902059 90.7926176,6.9984436 C91.0488127,7.67786662 91.1769102,8.46043905 91.1769102,9.34616089 L91.1769102,10.1527405 L82.0323179,10.1527405 L82.0323179,8.31176758 L89.763336,8.31176758 L88.4179686,8.78601074 C88.4179686,8.23364258 88.3285775,7.75477091 88.1497954,7.34939575 C87.9710132,6.94402059 87.7102405,6.63019816 87.3674772,6.40792847 C87.024714,6.18565877 86.6043089,6.07452393 86.106262,6.07452393 C85.6103514,6.07452393 85.1869963,6.18667603 84.8361967,6.41098022 C84.4853972,6.63528442 84.2170968,6.94412231 84.0312956,7.3374939 C83.8454944,7.73086548 83.7525938,8.18476359 83.7525938,8.69918823 L83.7525938,9.98306274 C83.7525938,10.5809021 83.8549549,11.0895538 84.059677,11.5090179 C84.264399,11.9284821 84.5553587,12.2467804 84.932556,12.463913 C85.3097532,12.6810455 85.7529702,12.7896118 86.2622069,12.7896118 C86.6152952,12.7896118 86.9336699,12.7389781 87.2173308,12.6377106 C87.5009916,12.5364431 87.7426654,12.3892212 87.9423521,12.1960449 C88.1420388,12.0028687 88.2913715,11.7691549 88.3903502,11.4949036 L91.0327147,11.8214417 C90.8729043,12.4509176 90.5719501,13.0024974 90.1298521,13.476181 C89.6877541,13.9498647 89.1333515,14.3188222 88.4666441,14.5830536 C87.7999368,14.847285 87.0453896,14.9794006 86.2030028,14.9794006 Z" id="Path"></path>
                </g>
                <g id="crypto">
                    <path d="M15.3026562,0.000894382022 C15.4152243,0.00235764386 15.5288328,0.00486609272 15.6318295,0.00862876602 C18.5082462,0.121508965 20.8509527,1.08099065 22.8003992,2.94351394 C24.4857995,4.55770078 25.9520979,7.04670916 26.9577201,10.0154584 C27.2442382,10.8620599 27.3453622,11.0934643 27.4970482,11.2514966 C27.6712063,11.4264609 27.7049143,11.4377489 27.9858143,11.4151729 C28.3734564,11.3813088 28.7217725,11.1781244 29.4858207,10.5121313 C30.3285209,9.78969799 30.648747,9.66552978 31.030771,9.89693418 C31.2498731,10.0323904 31.4127951,10.2920149 31.5307732,10.7153156 C31.6712232,11.2007005 31.6206612,12.2222663 31.4240311,12.9390555 C31.1094231,14.0847896 30.3959369,15.6594683 29.2273926,17.8041921 C28.5363785,19.0628063 28.3622204,19.446599 28.1599724,20.1521002 C27.9183983,20.9930577 27.7948023,21.8791673 27.7049143,23.4482021 C27.4914302,27.3143489 27.0476081,29.9783216 26.384684,31.4006121 C25.9745699,32.2810776 25.6093998,32.5914982 24.9577116,32.5914982 C24.4857995,32.5914982 24.2273715,32.4560419 23.8284934,31.9932331 C23.1599512,31.2200037 23.0363552,31.1409876 22.6487131,31.2482238 C22.3621951,31.3272399 22.120621,31.6715245 21.4408428,32.9922229 C20.5138726,34.781374 20.0363425,35.5828234 19.4408344,36.3334767 C18.4801562,37.5412949 16.7217218,38.3088802 15.8846396,37.8799355 C15.5194695,37.6993272 15.3453114,37.4058386 15.0868834,36.5423051 C14.9632874,36.1246484 14.8059833,35.6674836 14.7329493,35.5263833 C14.4745212,35.0127784 13.9969911,34.7418659 13.474517,34.8152381 C13.1599089,34.8603902 12.7778849,35.0692185 11.5025986,35.904532 C9.64865814,37.1236381 8.68797992,37.5243628 7.3003336,37.6654631 C5.80594526,37.8178514 4.47447895,37.4058386 4.03065685,36.6438973 C3.86773481,36.3616968 3.85649881,36.3165447 3.87897082,35.881956 C3.89582482,35.4642992 3.92391483,35.362707 4.15987088,34.8886102 C4.30032091,34.5951217 4.70481701,33.9573486 5.04751508,33.4606757 C6.4239254,31.4965602 6.94639952,30.6499587 7.45763764,29.5888849 C8.05876377,28.3302707 8.33966384,27.2635528 8.39584385,26.0162266 C8.45202386,24.7745444 8.27786582,24.1593473 7.7216837,23.6344544 C7.33965961,23.2675937 6.94639952,23.0418333 5.62055122,22.4266363 C3.74413879,21.5574587 2.68795454,20.9196856 2.03064839,20.2593364 C1.35087024,19.5820552 1.15424019,18.8257579 1.54188228,18.3629491 C1.78345634,18.0751046 1.92390637,18.0355965 2.82840458,18.0017325 C4.37335493,17.9396483 5.22729113,17.8041921 5.73291124,17.5332796 C5.90706928,17.4373315 6.01381131,17.3413833 6.03628331,17.2510791 C6.05875532,17.160775 5.95201329,16.7487623 5.72167524,16.031973 C5.30032514,14.7225627 5.08122309,13.8533852 4.91830105,12.8092433 C4.74976102,11.7651015 4.73852501,9.52442953 4.89021105,8.63267596 C5.34526915,5.99692331 6.53066742,3.81833548 8.28348383,2.38475695 C9.99135622,0.985042486 12.2947367,0.138440995 14.7329493,0.00298475607 C14.7638483,0.00204408775 14.8008335,0.00126019748 14.8424483,0.000659214941 Z M19.7370304,11.7125544 C18.7013329,11.3741269 14.6045743,12.1047005 12.5734566,12.9964302 C11.9750536,13.2596516 11.6931138,13.4584106 11.5837901,13.7108883 C11.4744665,13.9526222 11.4802204,14.0708032 11.6470828,14.3931151 C12.0843772,15.2579855 13.3962606,16.0852527 14.7254056,16.3377304 C15.6057484,16.5042582 16.8773547,16.353846 17.7404359,15.9885591 C19.1961662,15.3761665 20.4217414,13.839813 20.4217414,12.6418871 C20.4217414,12.1530473 20.214602,11.8737103 19.7370304,11.7125544 Z M11.0412583,8.28336849 C10.2984297,8.38344099 9.82854414,9.17503922 9.99173953,10.0514526 C10.1549349,10.927866 10.8894125,11.5572147 11.6322411,11.4571422 C12.3750697,11.3570697 12.8449553,10.5654714 12.6817599,9.68905803 C12.5185645,8.81264463 11.7840869,8.18329598 11.0412583,8.28336849 Z M18.3554176,6.85416495 C17.612589,6.95423745 17.1427034,7.74583568 17.3058988,8.62224908 C17.4690942,9.49866249 18.2035718,10.1280111 18.9464004,10.0279386 C19.689229,9.92786613 20.1591146,9.13626789 19.9959192,8.25985449 C19.8327238,7.38344109 19.0982462,6.75409244 18.3554176,6.85416495 Z"></path>
                </g>
            </g>
        </g>
    </g>
</svg>