<?xml version="1.0" encoding="UTF-8"?><svg id="Layer_1" xmlns="http://www.w3.org/2000/svg" width="1024" height="1024" viewBox="0 0 1024 1024"><path d="M998.51,123.25H148.63c-5.32.18-10.44,2.11-14.56,5.48-4.12,3.37-7.02,8.01-8.26,13.19l-20.74,74.64c-2.08,8.28,2.08,14.51,8.27,18.67,33.17,10.36,211.42,14.51,184.48,114.06l-6.23,26.95-72.54,271.62-6.23,26.95c-26.94,99.51-122.3,103.67-161.66,114.06-8.27,2.08-14.51,10.36-16.59,18.67l-20.66,74.6c-2.08,10.35,4.16,18.67,14.51,18.67h346.15c5.32-.18,10.44-2.11,14.56-5.48,4.12-3.37,7.02-8.01,8.26-13.19l62.19-240.52c1.23-5.18,4.14-9.82,8.26-13.19,4.12-3.37,9.24-5.3,14.56-5.48h221.81c5.32-.19,10.42-2.12,14.54-5.49,4.11-3.37,7.01-8,8.24-13.18l33.17-128.58c2.08-10.36-4.16-18.67-14.51-18.67h-221.78c-10.35,0-16.58-8.28-14.51-18.67l31.09-116.1c1.24-5.18,4.14-9.82,8.26-13.19,4.12-3.37,9.24-5.3,14.56-5.48h333.72c5.32-.19,10.42-2.12,14.54-5.49,4.11-3.37,7.01-8,8.24-13.18l89.12-141.01c4.16-12.43,0-20.75-10.35-20.75l-.04.08Z" fill="#0d0e1d"/></svg>