<?xml version="1.0" encoding="UTF-8"?><svg id="Layer_1" xmlns="http://www.w3.org/2000/svg" width="1024" height="1024" viewBox="0 0 1024 1024"><path d="M25.56,175.79c5.34-8.55,14.72-13.73,24.8-13.71h307.78c11.22.03,21.43,6.49,26.26,16.63l127.78,266.06,127.47-266.35c4.83-10.14,15.05-16.61,26.29-16.63h307.75c16.11.04,29.14,13.13,29.11,29.24,0,4.32-.98,8.58-2.83,12.48l-307.78,642.09c-4.83,10.13-15.03,16.6-26.26,16.63h-307.78c-11.23-.02-21.45-6.49-26.27-16.63L24.12,203.79c-4.33-8.97-3.79-19.53,1.44-28ZM665.9,258.35l107.94,224.62h-215.89l107.33-224.62h.61ZM97.03,220.42l107.37,224.63,107.94-224.63H96.45h.61-.03ZM358.14,258.35l107.93,224.62h-215.58l107.35-224.62h.3ZM712.58,220.42l107.35,224.63,107.94-224.63h-215.89.59ZM665.9,765.95l-107.35-224.63h214.99l-107.93,224.63s.29,0,.29,0ZM619.81,803.87l-107.94-224.6-107.35,224.6h215.29ZM358.43,765.95l-107.94-224.63h215.31l-107.96,224.63h.59Z" fill="#2ac4f0" fill-rule="evenodd"/></svg>