<?xml version="1.0" encoding="UTF-8"?>
<svg id="Layer_1" xmlns="http://www.w3.org/2000/svg" version="1.1" viewBox="0 0 1000 1000">
  <!-- Generator: Adobe Illustrator 30.1.0, SVG Export Plug-In . SVG Version: 2.1.1 Build 136)  -->
  <defs>
    <style>
      .st0 {
        fill: #fff;
      }

      .st0, .st1 {
        fill-rule: evenodd;
      }

      .st2 {
        stroke: #fff;
        stroke-miterlimit: 10;
      }
    </style>
  </defs>
  <g id="light-icon">
    <g id="crypto-dark">
      <g id="crypto">
        <path class="st1" d="M464.48,23.16c4.31.01,9.14.08,13.28.23,72.03,2.83,130.69,26.85,179.51,73.49,42.21,40.42,78.92,102.75,104.11,177.09,7.17,21.2,9.71,26.99,13.51,30.95,4.36,4.38,5.21,4.66,12.24,4.1,9.71-.85,18.43-5.94,37.56-22.61,21.1-18.09,29.12-21.2,38.69-15.41,5.49,3.39,9.57,9.89,12.52,20.49,3.52,12.15,2.25,37.74-2.67,55.68-7.88,28.69-25.75,68.12-55.01,121.83-17.3,31.52-21.67,41.13-26.73,58.79-6.05,21.06-9.14,43.25-11.4,82.54-5.35,96.81-16.46,163.52-33.06,199.14-10.27,22.05-19.41,29.82-35.73,29.82-11.82,0-18.29-3.39-28.28-14.98-16.74-19.36-19.84-21.34-29.54-18.66-7.17,1.98-13.22,10.6-30.25,43.67-23.21,44.8-35.17,64.87-50.08,83.67-24.06,30.25-68.09,49.47-89.05,38.73-9.14-4.52-13.51-11.87-19.98-33.5-3.1-10.46-7.03-21.91-8.86-25.44-6.47-12.86-18.43-19.65-31.51-17.81-7.88,1.13-17.44,6.36-49.38,27.28-46.43,30.53-70.48,40.56-105.23,44.1-37.42,3.82-70.76-6.5-81.88-25.58-4.08-7.07-4.36-8.2-3.8-19.08.42-10.46,1.13-13,7.03-24.87,3.52-7.35,13.65-23.32,22.23-35.76,31.37-44.76,45.02-66.34,56.87-89.89l.78-1.56c.91-1.82,1.8-3.65,2.7-5.51,15.05-31.52,22.09-58.23,23.49-89.46,1.41-31.09-2.95-46.5-16.88-59.64-9.57-9.19-19.41-14.84-52.62-30.25-46.99-21.77-73.44-37.74-89.9-54.27-17.02-16.96-21.95-35.9-12.24-47.49,6.05-7.21,9.57-8.2,32.22-9.05,38.69-1.55,60.07-4.95,72.73-11.73,4.36-2.4,7.03-4.81,7.6-7.07.56-2.26-2.11-12.58-7.88-30.53-10.55-32.79-16.04-54.55-20.12-80.7-4.22-26.15-4.5-82.26-.7-104.59,11.4-66,41.08-120.56,84.97-156.45,42.77-35.05,100.45-56.25,161.5-59.64,1.66-.05,4.02-.08,6.71-.09h2.51ZM580.56,316.46c-25.94-8.47-128.52,9.82-179.39,32.15-14.98,6.59-22.05,11.57-24.78,17.89-2.74,6.05-2.59,9.01,1.58,17.08,10.95,21.66,43.8,42.37,77.09,48.7,22.05,4.17,53.89.4,75.5-8.74,36.45-15.34,67.14-53.81,67.14-83.81,0-12.24-5.19-19.24-17.15-23.27ZM362.81,230.58c-18.6,2.51-30.37,22.33-26.28,44.28,4.09,21.95,22.48,37.71,41.08,35.2,18.6-2.51,30.37-22.33,26.28-44.28-4.09-21.95-22.48-37.71-41.08-35.2ZM545.96,194.79c-18.6,2.51-30.37,22.33-26.28,44.28,4.09,21.95,22.48,37.71,41.08,35.2,18.6-2.51,30.37-22.33,26.28-44.28-4.09-21.95-22.48-37.71-41.08-35.2Z"/>
      </g>
    </g>
  </g>
  <rect class="st2" width="1000" height="1000"/>
  <g id="dark-icon">
    <g id="crypto-light">
      <g id="crypto1" data-name="crypto">
        <path class="st0" d="M464.48,23.16c4.31.01,9.14.08,13.28.23,72.03,2.83,130.69,26.85,179.51,73.49,42.21,40.42,78.92,102.75,104.11,177.09,7.17,21.2,9.71,26.99,13.51,30.95,4.36,4.38,5.21,4.66,12.24,4.1,9.71-.85,18.43-5.94,37.56-22.61,21.1-18.09,29.12-21.2,38.69-15.41,5.49,3.39,9.57,9.89,12.52,20.49,3.52,12.15,2.25,37.74-2.67,55.68-7.88,28.69-25.75,68.12-55.01,121.83-17.3,31.52-21.67,41.13-26.73,58.79-6.05,21.06-9.14,43.25-11.4,82.54-5.35,96.81-16.46,163.52-33.06,199.14-10.27,22.05-19.41,29.82-35.73,29.82-11.82,0-18.29-3.39-28.28-14.98-16.74-19.36-19.84-21.34-29.54-18.66-7.17,1.98-13.22,10.6-30.25,43.67-23.21,44.8-35.17,64.87-50.08,83.67-24.06,30.25-68.09,49.47-89.05,38.73-9.14-4.52-13.51-11.87-19.98-33.5-3.1-10.46-7.03-21.91-8.86-25.44-6.47-12.86-18.43-19.65-31.51-17.81-7.88,1.13-17.44,6.36-49.38,27.28-46.43,30.53-70.48,40.56-105.23,44.1-37.42,3.82-70.76-6.5-81.88-25.58-4.08-7.07-4.36-8.2-3.8-19.08.42-10.46,1.13-13,7.03-24.87,3.52-7.35,13.65-23.32,22.23-35.76,31.37-44.76,45.02-66.34,56.87-89.89l.78-1.56c.91-1.82,1.8-3.65,2.7-5.51,15.05-31.52,22.09-58.23,23.49-89.46,1.41-31.09-2.95-46.5-16.88-59.64-9.57-9.19-19.41-14.84-52.62-30.25-46.99-21.77-73.44-37.74-89.9-54.27-17.02-16.96-21.95-35.9-12.24-47.49,6.05-7.21,9.57-8.2,32.22-9.05,38.69-1.55,60.07-4.95,72.73-11.73,4.36-2.4,7.03-4.81,7.6-7.07.56-2.26-2.11-12.58-7.88-30.53-10.55-32.79-16.04-54.55-20.12-80.7-4.22-26.15-4.5-82.26-.7-104.59,11.4-66,41.08-120.56,84.97-156.45,42.77-35.05,100.45-56.25,161.5-59.64,1.66-.05,4.02-.08,6.71-.09h2.51ZM580.56,316.46c-25.94-8.47-128.52,9.82-179.39,32.15-14.98,6.59-22.05,11.57-24.78,17.89-2.74,6.05-2.59,9.01,1.58,17.08,10.95,21.66,43.8,42.37,77.09,48.7,22.05,4.17,53.89.4,75.5-8.74,36.45-15.34,67.14-53.81,67.14-83.81,0-12.24-5.19-19.24-17.15-23.27ZM362.81,230.58c-18.6,2.51-30.37,22.33-26.28,44.28,4.09,21.95,22.48,37.71,41.08,35.2,18.6-2.51,30.37-22.33,26.28-44.28-4.09-21.95-22.48-37.71-41.08-35.2ZM545.96,194.79c-18.6,2.51-30.37,22.33-26.28,44.28,4.09,21.95,22.48,37.71,41.08,35.2,18.6-2.51,30.37-22.33,26.28-44.28-4.09-21.95-22.48-37.71-41.08-35.2Z"/>
      </g>
    </g>
  </g>
</svg>